<svg xmlns="http://www.w3.org/2000/svg" width="16" height="16" viewBox="0 0 16 16">
  <path d="M8,16 C3.581722,16 0,12.418278 0,8 C0,3.581722 3.581722,0 8,0 C12.418278,0 16,3.581722 16,8 C16,12.418278 12.418278,16 8,16 Z M5.97811207,11.6768998 L5.97811207,8.80122012 L7.38978986,8.80122012 L7.38978986,7.14782274 L5.97811207,7.14782274 L5.97811207,6.08187888 L7.49400768,6.08187888 L7.49400768,4.3621561 L4.00271061,4.3621561 L4.00271061,11.6768998 L5.97811207,11.6768998 Z M8.3328235,11.6768998 L12.0041332,11.6768998 L12.0041332,9.91927682 L10.308225,9.91927682 L10.308225,8.80122012 L11.8288577,8.80122012 L11.8288577,7.14782274 L10.308225,7.14782274 L10.308225,6.08187888 L12.0041332,6.08187888 L12.0041332,4.3621561 L8.3328235,4.3621561 L8.3328235,11.6768998 Z"/>
</svg>
